<svg xmlns="http://www.w3.org/2000/svg" viewBox="5 5 54 54">
  <g stroke="#1a1a1a" stroke-width="2" stroke-linejoin="round" stroke-linecap="round">
    <path d="M32 6 L58 20 L32 34 L6 20 Z" fill="#e6b94a"/>
    <path d="M6 20 L32 34 L32 58 L6 44 Z" fill="#3a6b3a"/>
    <path d="M58 20 L32 34 L32 58 L58 44 Z" fill="#6b3a20"/>
  </g>
  <g transform="matrix(0.13 0.07 -0.13 0.07 32 13)" fill="#1a1a1a">
    <path d="M83.606 7.524l.179-.013a.226.226 0 0 0-.179.013z"/>
    <path d="M55.573 38.43c6.065-.553 12.097-.086 17.774 1.395 4.067-5.406 6.519-11.19 7.297-16.469-5.76.775-11.725 2.577-17.515 5.471a64.538 64.538 0 0 1 17.797-9.173c.406-7.201 1.849-11.764 2.68-12.13-1.017.076-6.69.574-14.033 2.702-8.117 2.352-18.256 6.693-26.345 14.651S30.633 42.9 28.149 50.978s-2.946 14.166-2.946 14.166 6.095-.362 14.212-2.714 18.257-6.693 26.345-14.651a48.941 48.941 0 0 0 4.423-4.195c-4.299-2.491-9.223-4.273-14.61-5.154z"/>
    <path d="M16.238 89.912c1.01-7.24 2.97-14.373 5.936-21.052 2.945-6.685 6.907-12.895 11.468-18.48 9.048-11.223 19.616-20.945 30.324-30.34a.742.742 0 0 1 .998 1.098c-10.35 9.752-20.487 19.788-28.945 31.087-4.248 5.602-7.793 11.647-10.369 18.101-2.588 6.442-4.197 13.241-4.911 20.139a2.267 2.267 0 1 1-4.511-.467l.01-.086z"/>
  </g>
</svg>
