<svg height="200" viewBox="0 0 200 200" width="200" xmlns="http://www.w3.org/2000/svg"><defs><linearGradient id="bg" x1="0%" x2="100%" y1="0%" y2="100%"><stop offset="0" stop-color="#2a2520"/><stop offset="1" stop-color="#1a1612"/></linearGradient><linearGradient id="gold" x1="0%" x2="100%" y1="0%" y2="100%"><stop offset="0" stop-color="#e6b94a"/><stop offset="1" stop-color="#c9a04a"/></linearGradient><linearGradient id="parchment" x1="0%" x2="0%" y1="0%" y2="100%"><stop offset="0" stop-color="#faf6ec"/><stop offset="1" stop-color="#ebe1c6"/></linearGradient></defs><circle cx="100" cy="100" fill="url(#bg)" r="95" stroke="url(#gold)" stroke-width="3"/><rect fill="url(#parchment)" height="100" rx="3" width="86" x="57" y="50"/><ellipse cx="100" cy="50" fill="url(#gold)" rx="45" ry="7"/><ellipse cx="100" cy="150" fill="url(#gold)" rx="45" ry="7"/><g fill="#6b4a1f"><rect height="2" rx="1" width="70" x="65" y="68"/><rect height="2" rx="1" width="56" x="65" y="78"/><rect height="2" rx="1" width="64" x="65" y="88"/><rect height="2" rx="1" width="50" x="65" y="98"/><rect height="2" rx="1" width="62" x="65" y="108"/><rect height="2" rx="1" width="46" x="65" y="118"/><rect height="2" rx="1" width="58" x="65" y="128"/></g><text fill="url(#gold)" font-family="Cinzel, Georgia, serif" font-size="24" font-weight="700" text-anchor="middle" x="100" y="42">❦</text></svg>
